<svg version="1.2" xmlns="http://www.w3.org/2000/svg" viewBox="0 0 3377 2250" width="250" height="167">
	<title>01-svg</title>
	<style>
		.s0 { fill: #201e1e } 
	</style>
	<g id="Layer_x0020_1">
		<g id="_2615830161680">
			<path id="Layer" class="s0" d="m1515.4 62.8v518.1h86.4v-518.1h262 5.2 250.9v857.4h-80.5v44.8h-86.3v83.6h-89.3v-647.9h-85.3v648.3h-81v-177.2h-95.7v46h-86.4v222.8h-80.5v-175.6h-86.3v83.6h-89.3v-985.8z"/>
			<path id="Layer" class="s0" d="m1951.2 1263.6v-130.4h83.4v130.4z"/>
			<path id="Layer" class="s0" d="m2039.3 1086.6v-80.4h83.4v80.4z"/>
			<path id="Layer" class="s0" d="m1262.6 1263.6v-130.4h83.4v130.4z"/>
			<path id="Layer" class="s0" d="m1438 1394.8v-166.1h75.7v166.1z"/>
			<path id="Layer" class="s0" d="m1608.7 1307.9v-166.1h75.7v166.1z"/>
			<path id="Layer" fill-rule="evenodd" class="s0" d="m121.6 1774.2h214.3q8.8 0 16.5 5.9c6.7 5.7 10 13.1 10 22.1v32.9h-0.4q-23.6 0.3-99.9 0.3-60 0.3-93.1 0.3c-23.1 0.3-38.7 0.4-47.1 0.4-1.7 0-3.2 0.6-4.5 1.7-1.1 1.1-1.7 2.7-1.7 4.9v12.8q0 4.6 3.8 6.2 0.6 0.2 0.9 0.3 0.4 0.1 0.9 0.1 76.5-0.4 87.3-0.4c1.9 0 5.1 0 9.8-0.2 13.3-0.1 38.5-0.2 75.7-0.2h1.3c4.8 0 11.3 0.5 19.4 1.8 5.9 1 10.7 2.2 14.5 3.7q18.2 7.1 26.1 22.4c4.7 9 7 20.2 7 33.3v24.1q0 35.8-21.1 50.5-17 12.1-50.8 12.1h-208.7q-11.9 0-20.6-9.9c-4.2-5-6.3-10.8-6.3-17.4v-33.4h237.8c2.7 0 4.5-1.3 5.4-3.9q0.3-0.5 0.4-1c0-0.4 0.1-0.6 0.1-0.7v-17.7c0-2.4-1.3-4-3.9-5.1q-1-0.3-2-0.3h-170.8c-27 0-45.6-6.7-55.6-20.1-2.1-2.4-3.5-4.7-4.5-6.9-1.1-2.2-2.2-4.8-3.1-7.9-1-3-1.8-6.5-2.4-10.9q-1-6.9-1-20.3v-1.4c0-21.7 1.8-36.7 5.6-44.9 1.9-5.5 5.1-10.6 9.6-15.5q3.7-4.2 6.5-5.9 9.8-6.8 22.2-9.3 10.4-2.5 22.4-2.5zm536 0c7.4 0 13.3 2.7 17.9 8.2 2.1 2.4 3.7 5.5 4.5 9.5q0.6 2 0.6 5.7v34.6h-213.8v34h149.7v50.9h-149.4l-0.2 0.1v36h213.5q0.2 0 0.2 0.2v33.9q0 7.8-5.7 14.5c-2.4 2.4-4.1 3.7-5.1 4.2-3.4 2.1-7.5 3.2-12.5 3.2h-230c-1.6 0-3.7-0.4-6.4-1.3-5.7-2.2-10-6-12.8-11.5-1.4-3.1-2-6.5-2-10.1v-118.6q-0.2-8.7-0.2-56.1v-15.5c0-3.7 1.2-7.6 3.5-11.6q3.7-5.5 8.8-8c2.5-1.1 4.3-1.7 5.6-1.8q1-0.3 3-0.5zm191.9 0h49.4c10 0 18.4 4.1 25.1 12.5q2.7 3.7 6.8 11.4c0.4 0.7 0.8 1.4 1.1 2.1 1.1 1.5 9.7 16.7 26.1 45.5 4.6 8.2 9.8 17.6 15.8 28q55.5 98 57 100.3l19.8 35.2h-52c-13.7 0-23.8-6.4-30.4-19.4-4.6-7.9-7.9-13.7-10.1-17.6-1.8-3.2-2.8-5-3-5.1h-161.3c-0.3 0-0.5 0-0.8 0.2q-0.4 0.4-0.6 1.4l-15.2 26.7q-10.2 13.8-27.3 13.8h-51.5q-0.3 0-0.3 0 0-0.1 0-0.3 37.2-66 65-114.4c14.6-25.8 26.4-46.6 35.4-62.4q20.9-37 21.9-38.5c1.8-3.4 3.7-6.4 5.8-8.9 6.5-7.1 14.3-10.5 23.3-10.5zm24.7 50.1l-52.8 92.9h105.6c-34.5-60.4-52.1-91.5-52.8-92.9zm397.6-50.1h64.1q-121.1 214-122.2 215.6l-7.4 13c-0.9 1.1-2.6 2.2-5.2 3-7.7 2.3-17.7 3.4-30 3.4h-4.4c-11.3 0-22-1-32.1-3-3.6-0.9-6.3-1.8-8.1-2.7-1-0.7-1.8-1.7-2.4-2.9l-127.6-225.1h64c3.6 0 7.2 1.2 10.8 3.4 4 2.6 7.1 6.5 9.4 11.6 54.9 92.7 83.3 140.9 85.1 144.5h0.2c58.2-99.1 87.8-149.6 88.9-151.4 0.9-1.3 2.2-2.8 3.9-4.4 4.1-3.4 8.5-5 13-5zm337.1 0c7.3 0 13.2 2.7 17.8 8.2 2.2 2.4 3.7 5.5 4.6 9.5q0.5 2 0.5 5.7v34.6h-213.8v34h149.7v50.9h-149.3l-0.2 0.1v36h213.4q0.2 0 0.2 0.2v33.9q0 7.8-5.7 14.5c-2.4 2.3-4.1 3.7-5.1 4.2-3.4 2.1-7.5 3.2-12.5 3.2h-229.9c-1.6 0-3.8-0.4-6.5-1.3-5.7-2.2-9.9-6-12.8-11.5-1.4-3.1-2-6.5-2-10.1v-118.6q-0.2-8.7-0.2-56.1v-15.5c0-3.7 1.2-7.6 3.6-11.6q3.7-5.5 8.8-8c2.4-1.1 4.3-1.7 5.5-1.8q1-0.3 3-0.5zm83.9 0h38q1.9 0 30.4 24.5c19 16.3 40.3 34.9 64.2 55.7 23.8 20.9 44.8 39.5 63.3 55.8l27.7 24.4v-160.4h37.9c8 0 14.3 3.1 18.8 9.4 2.7 3.8 4 8.2 4 13v189.8c0 7.6-3.2 13.9-9.6 19-1.7 1.1-3.8 2-6.3 2.8q-2.3 1-8.5 1h-35.6c-1.4 0-11.6-8.2-30.7-24.5-19.1-16.3-40.6-34.9-64.5-55.7q-35.8-31.3-63.4-55.8l-27.7-24.3v160.3h-37c-5.5 0-10-1.1-13.5-3.4-4.1-2.7-7.1-6.6-8.9-11.4q-1.3-3.6-1.3-7.6v-189.7c0-7.6 3-13.8 9.2-18.4q5.7-4.5 13.5-4.5zm345.6 0h261.3q9.8 0 16.2 5.9c2.4 2.2 3.9 4.1 4.6 5.5 2 4 3 7.3 3 10v39.8h-126v173.8h-39.2c-5.5 0-10.6-2.2-15.5-6.5q-0.1-0.2-0.3-0.6-0.5-0.5-1.4-1.5c-3.2-4.3-4.9-8.7-4.9-13.2v-152h-121.6v-31c0-8 0.2-12.1 0.7-12.2 1-4.5 2.7-8.1 5.2-10.8 2.7-2.3 4.7-3.8 5.9-4.3 2.8-1.9 6.8-2.9 12-2.9zm402.5 235c-8.6-0.3-15-0.7-19-1-3.2 0-9.5-1.1-19.1-3.2-7.2-1.8-12.7-3.6-16.5-5.4-5.3-2.4-10.6-6-15.9-10.8q-20.7-18.5-20.7-65.3l1.3-119.1c0-8 2.2-14.6 6.6-19.7 6.1-7.1 13.4-10.5 22.1-10.5h33.6v157.2c0 1.9 0.4 3.8 1.3 5.9q4.6 9.3 13.8 9.3h156.3c4.5 0 8.4-1.9 11.6-5.9 2.4-2.4 3.6-6.1 3.6-11.3 0-0.1 0-155.1 0-155.2q0 0 0.4 0h33.4c3.8 0 7.5 0.8 11.1 2.5q10.4 4.4 15.2 15.2c1 2.7 1.6 5.4 2 8.3 1 73.7 1.5 115.3 1.5 124.6q0 25.5-7.3 44.3c-1.2 3.2-3 6.8-5.5 10.7q-5.6 8.2-13.9 14.2-6.9 4.4-14.1 7.3c-4.9 2-12.1 3.9-21.8 5.6q-16.7 2.3-27.7 2.3zm292.4-235h171.2c23 0 42.9 3.5 59.7 10.7 3.4 1.4 6 2.5 7.9 3.4 2.9 1.6 5.8 3.5 9 5.6 14.9 9.1 25.5 22 31.9 38.7 3.3 8.8 5 18.3 5 28.3v2.2q0 18-7.6 34.1c-1.6 3-3.5 6.4-5.9 10.1q-3 4-7.3 8.6c-1.3 1.6-2.7 3-4 4.2l-1.7 1.7-1.3 1-2.6 2q-3 2.3-7.6 5.1-0.6 0.4-1.3 0.9-4.6 2.3-8.3 4.2c-1.2 0.6-2.4 1.1-3.5 1.6-4.4 1.8-9 3.5-13.8 4.9q20.9 21.7 28.6 31.4c3.5 4 7 7.9 10.3 11.7 6.4 7.4 12.6 14.3 18.4 20.8 1.8 1.6 2.9 2.8 3.2 3.5h-72.9c-4.1 0-7.4-0.5-9.8-1.4q-1-0.5-1.8-1-0.9-0.5-1.9-1.1-3.6-2.5-7.9-8c-10.7-12.7-22-26.6-33.9-41.7l-5.9-7.6c-0.4 0-1 0.1-2.1 0.4q-10.4 0-62.9 0.3h-42.9v38.3c0 7.2-3.1 13.3-9.2 18.3-3.7 2.6-8 3.8-12.9 3.8h-38.6v-211.4q0-5.7 1.4-9.1c0.4-1.4 1.2-2.9 2.3-4.7 0.8-1.2 1.8-2.2 2.9-3.3q7.1-6.5 15.8-6.5zm38.3 60.9v53.1h138.3c10.7 0 19-1.8 24.6-5.5 4.1-2.6 7-6.1 8.9-10.3 1.6-3.3 2.4-7 2.4-11.1 0-8.3-3.8-15.1-11.3-20.7-1.1-0.7-2.3-1.4-3.6-2q-0.5-0.1-1-0.5c-2-1-5.1-1.9-9.3-2.7-1.3 0-3.2-0.1-5.5-0.3zm532.5-60.9c7.3 0 13.2 2.7 17.8 8.2 2.2 2.4 3.7 5.5 4.6 9.5q0.5 2 0.5 5.7v34.6h-213.8v34h149.7v50.9h-149.4l-0.1 0.1v36h213.4q0.2 0 0.2 0.2v33.9q0 7.8-5.7 14.5c-2.4 2.3-4.1 3.7-5.1 4.2-3.4 2.1-7.5 3.2-12.5 3.2h-230c-1.6 0-3.7-0.4-6.4-1.3-5.7-2.2-10-6-12.8-11.5-1.4-3.1-2-6.5-2-10.1v-118.6q-0.2-8.7-0.2-56.1v-15.5c0-3.7 1.2-7.6 3.5-11.6q3.8-5.5 8.8-8c2.5-1.1 4.4-1.7 5.6-1.8q1-0.3 3-0.5z"/>
			<path id="Layer" class="s0" d="m934.9 2167.2q-6.2 0-11.7-1.2-5.6-1.2-10.4-3.5-4.8-2.4-9-5.9l7.5-9.2q4.9 4.2 10.8 6.3 5.9 2.1 12.8 2.1 9.3 0 14.4-3.4 5.2-3.5 5.2-9.8 0-4.5-2.3-7.1-2.4-2.7-6.1-3.9-3.6-1.3-9.5-2.4-0.2 0-0.4 0-0.2 0-0.4-0.1l-0.8-0.2q-8.7-1.4-14.1-3.3-5.4-1.9-9.2-6.8-3.8-4.9-3.8-14v-0.1q0-7.9 3.5-13.6c2.4-3.7 5.9-6.6 10.5-8.5q6.8-3 16.4-3 4.6 0 9.1 1 4.4 1 8.8 3 4.3 2 8.5 5l-6.9 9.5q-4.8-3.6-9.7-5.4-4.9-1.8-9.8-1.8-8.8 0-13.6 3.5-4.9 3.6-4.9 10v0.1q0 4.4 2.5 6.9 2.5 2.5 6.3 3.8 3.7 1.2 10.4 2.5 0.2 0 0.4 0 0.2 0.1 0.5 0.2 0.2 0 0.6 0.1 0.4 0 0.6 0.1 7.8 1.6 13.1 3.8 5.2 2.1 8.7 7 3.5 4.9 3.5 13.3v0.1q0 7.9-3.7 13.5-3.7 5.5-10.8 8.5-7 2.9-17 2.9zm125.5-86.7h12.1v85.8h-12.1zm-48.7 0h12v85.8h-12zm7.5 37.8h47.6v11.5h-47.6zm115.9 48h-12.1v-85.8h12.1zm56.7-44.8h27.5q3.8 0 6.8-1.8 3-1.8 4.6-5.2 1.6-3.4 1.6-7.7 0-4.5-1.6-7.8-1.6-3.4-4.6-5.2-3-1.9-6.8-1.9h-27.5v-11.4h27.1q7.6-0.1 13.5 3.2 5.8 3.3 9 9.3 3.2 5.9 3.2 13.8 0 7.8-3.2 13.8-3.2 5.9-9 9.1-5.9 3.3-13.5 3.3h-27.1zm-6.2-41.1h12.1v85.8h-12.1zm109.6 41.1h27.4q3.9 0 6.9-1.8 2.9-1.9 4.6-5.2 1.6-3.4 1.6-7.8 0-4.4-1.6-7.8-1.7-3.3-4.6-5.2-3-1.8-6.9-1.8h-27.4v-11.5h27q7.7 0 13.6 3.3 5.8 3.3 9 9.2 3.2 6 3.2 13.8 0 7.9-3.2 13.8-3.2 5.9-9 9.2-5.9 3.2-13.6 3.2h-27zm-6.2-41h12.1v85.8h-12.1zm115.4 85.8h-12v-85.8h12zm50.6-85.8h10.9l42 66.3-1.4 1.5v-67.8h11.9v85.7h-11l-41.9-65.3 1.4-1.5v66.8h-11.9zm172.6 39.6v15c0 6.4-1.2 12-3.7 16.9q-3.7 7.2-10.5 11.2-6.9 4-15.8 4-9.1 0-16-3.7-6.9-3.8-10.6-10.6-3.8-6.9-3.8-15.9v-25.3q0-9.6 3.7-16.8 3.7-7.3 10.5-11.3 6.9-4 15.8-4 7.4 0 13.6 3.2c4.2 2.1 7.6 5.1 10.4 8.9q4.2 5.8 5.7 13.4h-13q-1.1-4.3-3.6-7.4-2.6-3.1-6-4.7-3.4-1.6-7.1-1.6-5.3 0-9.3 2.5-4 2.6-6.2 7.1-2.2 4.6-2.2 10.7v25.3q0 5.6 2.3 9.7 2.2 4.2 6.3 6.5 4.1 2.3 9.5 2.3 5.3 0 9.3-2.4 4-2.4 6.2-7 2.2-4.5 2.2-10.7v-3.8h-17.4v-11.5zm139.5 47.1q-6.2 0-11.8-1.2-5.5-1.1-10.3-3.5-4.8-2.4-9-5.9l7.5-9.2q4.9 4.2 10.8 6.4 5.9 2.1 12.8 2.1 9.3 0 14.4-3.5 5.2-3.4 5.2-9.7v-0.1q0-4.5-2.4-7.1-2.3-2.6-6-3.9-3.7-1.3-9.5-2.3-0.2-0.1-0.4-0.1-0.2 0-0.4-0.1l-0.9-0.1q-8.6-1.5-14-3.4-5.4-1.8-9.2-6.7-3.9-5-3.8-14.1 0-8 3.5-13.6c2.4-3.8 5.9-6.6 10.4-8.6q6.9-3 16.5-3 4.6 0 9 1 4.5 1.1 8.9 3 4.3 2 8.5 5l-6.9 9.6q-4.9-3.6-9.7-5.4-4.9-1.8-9.8-1.8-8.8 0-13.7 3.5-4.8 3.5-4.8 9.9v0.1q0 4.4 2.5 6.9 2.5 2.6 6.2 3.8 3.8 1.2 10.4 2.5 0.3 0.1 0.5 0.1 0.2 0 0.4 0.1 0.3 0 0.7 0.1 0.3 0.1 0.6 0.1 7.8 1.6 13 3.8 5.3 2.2 8.8 7 3.5 4.9 3.5 13.4v0.1q0 7.8-3.7 13.4-3.8 5.6-10.8 8.5-7.1 2.9-17 2.9zm76.7-86.7h12.1v85.8h-12.1zm5.9 74.4h49.3v11.4h-49.3zm0-36.8h42.8v11.4h-42.8zm0-37.5h49.3v11.5h-49.3zm101 38h29.2q3.4 0 6.1-1.6 2.7-1.7 4.1-4.7 1.4-3 1.4-7 0-4-1.4-7-1.4-3-4.1-4.7-2.6-1.6-6.1-1.6h-29.2v-11.5h28.8q7.4 0 13 3.1 5.7 3 8.8 8.7 3.1 5.6 3.1 13 0 7.4-3.2 13-3.1 5.6-8.7 8.7-5.7 3.1-13 3.1h-28.8zm-5.3-38.1h12v85.8h-12zm28.6 46.9l12-2.7 22 41.7h-14.3zm70-46.9h13.1l20.6 67.3 20.6-67.3h13.1l-27.9 85.8h-11.5zm121.8 85.8h-12.1v-85.8h12.1zm78.6 0.9q-8.9 0-15.7-3.9-6.7-4-10.4-11.2-3.7-7.3-3.8-16.9v-23.5q0.1-9.6 3.8-16.8 3.7-7.3 10.4-11.3 6.8-4 15.7-4 7.4 0.1 13.6 3.2c4.1 2.1 7.6 5.1 10.3 9q4.2 5.7 5.7 13.3h-12.4q-1.1-4-3.7-7.1-2.6-3.2-6.2-4.9-3.5-1.7-7.3-1.7-5.2 0-9.2 2.5-4 2.6-6.1 7.1-2.2 4.6-2.2 10.7v23.5q0 6.1 2.2 10.7 2.1 4.6 6.1 7.1 4 2.5 9.2 2.5 3.8 0 7.4-1.6 3.5-1.6 6.1-4.7 2.6-3.2 3.7-7.5h12.4q-1.5 7.6-5.7 13.4-4.2 5.8-10.4 9-6.2 3.1-13.5 3.1zm74.8-86.7h12.1v85.8h-12.1zm5.9 74.4h49.3v11.4h-49.3zm0-36.8h42.7v11.4h-42.7zm0-37.5h49.3v11.5h-49.3zm121.5 86.7q-6.2 0-11.8-1.2-5.5-1.2-10.3-3.5-4.8-2.4-9-5.9l7.5-9.2q4.9 4.2 10.8 6.3 5.9 2.1 12.8 2.1 9.3 0 14.4-3.4 5.2-3.5 5.2-9.8 0-4.5-2.4-7.2-2.3-2.6-6-3.8-3.7-1.3-9.5-2.4-0.2 0-0.4 0-0.2 0-0.4-0.1l-0.9-0.2q-8.6-1.4-14-3.3-5.4-1.9-9.2-6.8-3.9-4.9-3.8-14v-0.1q0-7.9 3.5-13.6c2.4-3.7 5.9-6.6 10.4-8.5q6.9-3 16.5-3 4.6 0 9.1 1 4.4 1 8.8 3 4.3 2 8.5 5l-6.9 9.5q-4.9-3.6-9.7-5.4-4.9-1.8-9.8-1.8-8.8 0-13.7 3.5-4.8 3.5-4.8 10 0 4.5 2.5 7 2.5 2.5 6.2 3.7 3.8 1.3 10.5 2.6 0.2 0 0.4 0 0.2 0.1 0.4 0.1 0.3 0.1 0.7 0.2 0.3 0 0.6 0.1 7.8 1.6 13 3.8 5.3 2.1 8.8 7 3.5 4.9 3.5 13.3v0.1q0 7.9-3.7 13.5-3.8 5.5-10.8 8.5-7.1 2.9-17 2.9z"/>
		</g>
	</g>
</svg>